# xmcd
#
# Track frame offsets:
#	150
#	14400
#	33150
#	53850
#	75226
#
# Disc length: 1274 seconds
#
# Revision: 1
# Processed by: cddbd v1.5.2PL0 Copyright (c) Steve Scherf et al.
# Submitted via: audiograbber 1.83.01
#
DISCID=2c04f805
DTITLE=Soulfamily - Ain't no mountain high enough to keep us from getting to yo
DTITLE=u
DYEAR=2011
DGENRE=Soul
TTITLE0=Ain't no mountain high enough
TTITLE1=I heard it through the grapevine
TTITLE2=Ain't nobody
TTITLE3=Valerie
TTITLE4=Addicted to love
EXTD=
EXTT0=
EXTT1=
EXTT2=
EXTT3=
EXTT4=
PLAYORDER=
